G75*
%MOIN*%
%OFA0B0*%
%FSLAX24Y24*%
%IPPOS*%
%LPD*%
%AMOC8*
5,1,8,0,0,1.08239X$1,22.5*
%
%ADD10C,0.0100*%
%ADD11C,0.0080*%
%ADD12C,0.0060*%
%ADD13C,0.0030*%
D10*
X009746Y002414D02*
X009746Y003595D01*
X011124Y003595D01*
X011124Y002414D01*
X009746Y002414D01*
X010829Y004235D02*
X012207Y004235D01*
X012207Y005465D01*
X010829Y005465D01*
X010812Y005474D02*
X010820Y004248D01*
D11*
X010796Y004292D02*
X012174Y004292D01*
X012174Y005473D01*
X010796Y005473D01*
X010796Y004292D01*
X011189Y004587D02*
X011386Y004784D01*
X011189Y004587D02*
X011386Y004390D01*
X011189Y004587D02*
X011681Y004587D01*
X011158Y003556D02*
X009780Y003556D01*
X009780Y002374D01*
X011158Y002374D01*
X011158Y003556D01*
X010370Y002867D02*
X010174Y002670D01*
X010370Y002473D01*
X010174Y002670D02*
X010666Y002670D01*
D12*
X014695Y005334D02*
X014695Y005454D01*
X014835Y005824D02*
X015095Y005824D01*
X015035Y005734D02*
X015019Y005724D01*
X015002Y005716D01*
X014984Y005712D01*
X014965Y005710D01*
X014946Y005712D01*
X014928Y005716D01*
X014911Y005724D01*
X014895Y005734D01*
X014835Y004964D02*
X015095Y004964D01*
D13*
X015366Y005827D02*
X015680Y006141D01*
X015680Y005984D02*
X015366Y005984D01*
X015326Y006064D02*
X015277Y006015D01*
X015181Y006015D01*
X015132Y006064D01*
X015132Y006306D01*
X015031Y006161D02*
X014838Y006161D01*
X014886Y006306D02*
X014886Y006015D01*
X015031Y006161D02*
X014886Y006306D01*
X015326Y006306D02*
X015326Y006064D01*
X015366Y006141D02*
X015680Y005827D01*
X015523Y005827D02*
X015523Y006141D01*
M02*
