G75*
%MOIN*%
%OFA0B0*%
%FSLAX24Y24*%
%IPPOS*%
%LPD*%
%AMOC8*
5,1,8,0,0,1.08239X$1,22.5*
%
%ADD10C,0.0000*%
D10*
X003335Y003697D02*
X004910Y002122D01*
X010028Y002122D01*
X010028Y000548D01*
X015540Y000548D01*
X015540Y002910D01*
X017705Y002910D01*
X017705Y011886D01*
X013522Y011886D01*
X013522Y010489D01*
X011652Y010489D01*
X011652Y011886D01*
X009634Y011886D01*
X008847Y011178D01*
X008847Y006847D01*
X004910Y006847D01*
X003876Y007634D01*
X003266Y007634D01*
X004004Y005922D01*
X003178Y005567D01*
X003414Y004996D01*
X002784Y004721D01*
X002548Y005292D01*
X001701Y004957D01*
X000965Y006660D01*
X000815Y006571D01*
X000579Y006424D01*
X000579Y004878D01*
X001957Y003697D01*
X003335Y003697D01*
X001479Y004973D02*
X001481Y005000D01*
X001487Y005027D01*
X001496Y005053D01*
X001509Y005077D01*
X001525Y005100D01*
X001544Y005119D01*
X001566Y005136D01*
X001590Y005150D01*
X001615Y005160D01*
X001642Y005167D01*
X001669Y005170D01*
X001697Y005169D01*
X001724Y005164D01*
X001750Y005156D01*
X001774Y005144D01*
X001797Y005128D01*
X001818Y005110D01*
X001835Y005089D01*
X001850Y005065D01*
X001861Y005040D01*
X001869Y005014D01*
X001873Y004987D01*
X001873Y004959D01*
X001869Y004932D01*
X001861Y004906D01*
X001850Y004881D01*
X001835Y004857D01*
X001818Y004836D01*
X001797Y004818D01*
X001775Y004802D01*
X001750Y004790D01*
X001724Y004782D01*
X001697Y004777D01*
X001669Y004776D01*
X001642Y004779D01*
X001615Y004786D01*
X001590Y004796D01*
X001566Y004810D01*
X001544Y004827D01*
X001525Y004846D01*
X001509Y004869D01*
X001496Y004893D01*
X001487Y004919D01*
X001481Y004946D01*
X001479Y004973D01*
X003792Y005908D02*
X003794Y005935D01*
X003800Y005962D01*
X003809Y005988D01*
X003822Y006012D01*
X003838Y006035D01*
X003857Y006054D01*
X003879Y006071D01*
X003903Y006085D01*
X003928Y006095D01*
X003955Y006102D01*
X003982Y006105D01*
X004010Y006104D01*
X004037Y006099D01*
X004063Y006091D01*
X004087Y006079D01*
X004110Y006063D01*
X004131Y006045D01*
X004148Y006024D01*
X004163Y006000D01*
X004174Y005975D01*
X004182Y005949D01*
X004186Y005922D01*
X004186Y005894D01*
X004182Y005867D01*
X004174Y005841D01*
X004163Y005816D01*
X004148Y005792D01*
X004131Y005771D01*
X004110Y005753D01*
X004088Y005737D01*
X004063Y005725D01*
X004037Y005717D01*
X004010Y005712D01*
X003982Y005711D01*
X003955Y005714D01*
X003928Y005721D01*
X003903Y005731D01*
X003879Y005745D01*
X003857Y005762D01*
X003838Y005781D01*
X003822Y005804D01*
X003809Y005828D01*
X003800Y005854D01*
X003794Y005881D01*
X003792Y005908D01*
X005662Y003890D02*
X005664Y003952D01*
X005670Y004015D01*
X005680Y004076D01*
X005694Y004137D01*
X005711Y004197D01*
X005732Y004256D01*
X005758Y004313D01*
X005786Y004368D01*
X005818Y004422D01*
X005854Y004473D01*
X005892Y004523D01*
X005934Y004569D01*
X005978Y004613D01*
X006026Y004654D01*
X006075Y004692D01*
X006127Y004726D01*
X006181Y004757D01*
X006237Y004785D01*
X006295Y004809D01*
X006354Y004830D01*
X006414Y004846D01*
X006475Y004859D01*
X006537Y004868D01*
X006599Y004873D01*
X006662Y004874D01*
X006724Y004871D01*
X006786Y004864D01*
X006848Y004853D01*
X006908Y004838D01*
X006968Y004820D01*
X007026Y004798D01*
X007083Y004772D01*
X007138Y004742D01*
X007191Y004709D01*
X007242Y004673D01*
X007290Y004634D01*
X007336Y004591D01*
X007379Y004546D01*
X007419Y004498D01*
X007456Y004448D01*
X007490Y004395D01*
X007521Y004341D01*
X007547Y004285D01*
X007571Y004227D01*
X007590Y004167D01*
X007606Y004107D01*
X007618Y004045D01*
X007626Y003984D01*
X007630Y003921D01*
X007630Y003859D01*
X007626Y003796D01*
X007618Y003735D01*
X007606Y003673D01*
X007590Y003613D01*
X007571Y003553D01*
X007547Y003495D01*
X007521Y003439D01*
X007490Y003385D01*
X007456Y003332D01*
X007419Y003282D01*
X007379Y003234D01*
X007336Y003189D01*
X007290Y003146D01*
X007242Y003107D01*
X007191Y003071D01*
X007138Y003038D01*
X007083Y003008D01*
X007026Y002982D01*
X006968Y002960D01*
X006908Y002942D01*
X006848Y002927D01*
X006786Y002916D01*
X006724Y002909D01*
X006662Y002906D01*
X006599Y002907D01*
X006537Y002912D01*
X006475Y002921D01*
X006414Y002934D01*
X006354Y002950D01*
X006295Y002971D01*
X006237Y002995D01*
X006181Y003023D01*
X006127Y003054D01*
X006075Y003088D01*
X006026Y003126D01*
X005978Y003167D01*
X005934Y003211D01*
X005892Y003257D01*
X005854Y003307D01*
X005818Y003358D01*
X005786Y003412D01*
X005758Y003467D01*
X005732Y003524D01*
X005711Y003583D01*
X005694Y003643D01*
X005680Y003704D01*
X005670Y003765D01*
X005664Y003828D01*
X005662Y003890D01*
X007089Y005367D02*
X007091Y005415D01*
X007097Y005463D01*
X007107Y005510D01*
X007120Y005556D01*
X007138Y005601D01*
X007158Y005645D01*
X007183Y005687D01*
X007211Y005726D01*
X007241Y005763D01*
X007275Y005797D01*
X007312Y005829D01*
X007350Y005858D01*
X007391Y005883D01*
X007434Y005905D01*
X007479Y005923D01*
X007525Y005937D01*
X007572Y005948D01*
X007620Y005955D01*
X007668Y005958D01*
X007716Y005957D01*
X007764Y005952D01*
X007812Y005943D01*
X007858Y005931D01*
X007903Y005914D01*
X007947Y005894D01*
X007989Y005871D01*
X008029Y005844D01*
X008067Y005814D01*
X008102Y005781D01*
X008134Y005745D01*
X008164Y005707D01*
X008190Y005666D01*
X008212Y005623D01*
X008232Y005579D01*
X008247Y005534D01*
X008259Y005487D01*
X008267Y005439D01*
X008271Y005391D01*
X008271Y005343D01*
X008267Y005295D01*
X008259Y005247D01*
X008247Y005200D01*
X008232Y005155D01*
X008212Y005111D01*
X008190Y005068D01*
X008164Y005027D01*
X008134Y004989D01*
X008102Y004953D01*
X008067Y004920D01*
X008029Y004890D01*
X007989Y004863D01*
X007947Y004840D01*
X007903Y004820D01*
X007858Y004803D01*
X007812Y004791D01*
X007764Y004782D01*
X007716Y004777D01*
X007668Y004776D01*
X007620Y004779D01*
X007572Y004786D01*
X007525Y004797D01*
X007479Y004811D01*
X007434Y004829D01*
X007391Y004851D01*
X007350Y004876D01*
X007312Y004905D01*
X007275Y004937D01*
X007241Y004971D01*
X007211Y005008D01*
X007183Y005047D01*
X007158Y005089D01*
X007138Y005133D01*
X007120Y005178D01*
X007107Y005224D01*
X007097Y005271D01*
X007091Y005319D01*
X007089Y005367D01*
X007089Y005563D02*
X007091Y005611D01*
X007097Y005659D01*
X007107Y005706D01*
X007120Y005752D01*
X007138Y005797D01*
X007158Y005841D01*
X007183Y005883D01*
X007211Y005922D01*
X007241Y005959D01*
X007275Y005993D01*
X007312Y006025D01*
X007350Y006054D01*
X007391Y006079D01*
X007434Y006101D01*
X007479Y006119D01*
X007525Y006133D01*
X007572Y006144D01*
X007620Y006151D01*
X007668Y006154D01*
X007716Y006153D01*
X007764Y006148D01*
X007812Y006139D01*
X007858Y006127D01*
X007903Y006110D01*
X007947Y006090D01*
X007989Y006067D01*
X008029Y006040D01*
X008067Y006010D01*
X008102Y005977D01*
X008134Y005941D01*
X008164Y005903D01*
X008190Y005862D01*
X008212Y005819D01*
X008232Y005775D01*
X008247Y005730D01*
X008259Y005683D01*
X008267Y005635D01*
X008271Y005587D01*
X008271Y005539D01*
X008267Y005491D01*
X008259Y005443D01*
X008247Y005396D01*
X008232Y005351D01*
X008212Y005307D01*
X008190Y005264D01*
X008164Y005223D01*
X008134Y005185D01*
X008102Y005149D01*
X008067Y005116D01*
X008029Y005086D01*
X007989Y005059D01*
X007947Y005036D01*
X007903Y005016D01*
X007858Y004999D01*
X007812Y004987D01*
X007764Y004978D01*
X007716Y004973D01*
X007668Y004972D01*
X007620Y004975D01*
X007572Y004982D01*
X007525Y004993D01*
X007479Y005007D01*
X007434Y005025D01*
X007391Y005047D01*
X007350Y005072D01*
X007312Y005101D01*
X007275Y005133D01*
X007241Y005167D01*
X007211Y005204D01*
X007183Y005243D01*
X007158Y005285D01*
X007138Y005329D01*
X007120Y005374D01*
X007107Y005420D01*
X007097Y005467D01*
X007091Y005515D01*
X007089Y005563D01*
X007089Y005760D02*
X007091Y005808D01*
X007097Y005856D01*
X007107Y005903D01*
X007120Y005949D01*
X007138Y005994D01*
X007158Y006038D01*
X007183Y006080D01*
X007211Y006119D01*
X007241Y006156D01*
X007275Y006190D01*
X007312Y006222D01*
X007350Y006251D01*
X007391Y006276D01*
X007434Y006298D01*
X007479Y006316D01*
X007525Y006330D01*
X007572Y006341D01*
X007620Y006348D01*
X007668Y006351D01*
X007716Y006350D01*
X007764Y006345D01*
X007812Y006336D01*
X007858Y006324D01*
X007903Y006307D01*
X007947Y006287D01*
X007989Y006264D01*
X008029Y006237D01*
X008067Y006207D01*
X008102Y006174D01*
X008134Y006138D01*
X008164Y006100D01*
X008190Y006059D01*
X008212Y006016D01*
X008232Y005972D01*
X008247Y005927D01*
X008259Y005880D01*
X008267Y005832D01*
X008271Y005784D01*
X008271Y005736D01*
X008267Y005688D01*
X008259Y005640D01*
X008247Y005593D01*
X008232Y005548D01*
X008212Y005504D01*
X008190Y005461D01*
X008164Y005420D01*
X008134Y005382D01*
X008102Y005346D01*
X008067Y005313D01*
X008029Y005283D01*
X007989Y005256D01*
X007947Y005233D01*
X007903Y005213D01*
X007858Y005196D01*
X007812Y005184D01*
X007764Y005175D01*
X007716Y005170D01*
X007668Y005169D01*
X007620Y005172D01*
X007572Y005179D01*
X007525Y005190D01*
X007479Y005204D01*
X007434Y005222D01*
X007391Y005244D01*
X007350Y005269D01*
X007312Y005298D01*
X007275Y005330D01*
X007241Y005364D01*
X007211Y005401D01*
X007183Y005440D01*
X007158Y005482D01*
X007138Y005526D01*
X007120Y005571D01*
X007107Y005617D01*
X007097Y005664D01*
X007091Y005712D01*
X007089Y005760D01*
X011012Y004882D02*
X011014Y004905D01*
X011020Y004928D01*
X011030Y004949D01*
X011043Y004969D01*
X011059Y004986D01*
X011078Y005000D01*
X011099Y005010D01*
X011121Y005017D01*
X011144Y005020D01*
X011168Y005019D01*
X011190Y005014D01*
X011212Y005005D01*
X011232Y004993D01*
X011250Y004977D01*
X011264Y004959D01*
X011276Y004939D01*
X011284Y004917D01*
X011288Y004894D01*
X011288Y004870D01*
X011284Y004847D01*
X011276Y004825D01*
X011264Y004805D01*
X011250Y004787D01*
X011232Y004771D01*
X011212Y004759D01*
X011190Y004750D01*
X011168Y004745D01*
X011144Y004744D01*
X011121Y004747D01*
X011099Y004754D01*
X011078Y004764D01*
X011059Y004778D01*
X011043Y004795D01*
X011030Y004815D01*
X011020Y004836D01*
X011014Y004859D01*
X011012Y004882D01*
X011642Y004882D02*
X011644Y004908D01*
X011650Y004934D01*
X011660Y004959D01*
X011673Y004982D01*
X011689Y005002D01*
X011709Y005020D01*
X011731Y005035D01*
X011754Y005047D01*
X011780Y005055D01*
X011806Y005059D01*
X011832Y005059D01*
X011858Y005055D01*
X011884Y005047D01*
X011908Y005035D01*
X011929Y005020D01*
X011949Y005002D01*
X011965Y004982D01*
X011978Y004959D01*
X011988Y004934D01*
X011994Y004908D01*
X011996Y004882D01*
X011994Y004856D01*
X011988Y004830D01*
X011978Y004805D01*
X011965Y004782D01*
X011949Y004762D01*
X011929Y004744D01*
X011907Y004729D01*
X011884Y004717D01*
X011858Y004709D01*
X011832Y004705D01*
X011806Y004705D01*
X011780Y004709D01*
X011754Y004717D01*
X011730Y004729D01*
X011709Y004744D01*
X011689Y004762D01*
X011673Y004782D01*
X011660Y004805D01*
X011650Y004830D01*
X011644Y004856D01*
X011642Y004882D01*
X010627Y002965D02*
X010629Y002991D01*
X010635Y003017D01*
X010645Y003042D01*
X010658Y003065D01*
X010674Y003085D01*
X010694Y003103D01*
X010716Y003118D01*
X010739Y003130D01*
X010765Y003138D01*
X010791Y003142D01*
X010817Y003142D01*
X010843Y003138D01*
X010869Y003130D01*
X010893Y003118D01*
X010914Y003103D01*
X010934Y003085D01*
X010950Y003065D01*
X010963Y003042D01*
X010973Y003017D01*
X010979Y002991D01*
X010981Y002965D01*
X010979Y002939D01*
X010973Y002913D01*
X010963Y002888D01*
X010950Y002865D01*
X010934Y002845D01*
X010914Y002827D01*
X010892Y002812D01*
X010869Y002800D01*
X010843Y002792D01*
X010817Y002788D01*
X010791Y002788D01*
X010765Y002792D01*
X010739Y002800D01*
X010715Y002812D01*
X010694Y002827D01*
X010674Y002845D01*
X010658Y002865D01*
X010645Y002888D01*
X010635Y002913D01*
X010629Y002939D01*
X010627Y002965D01*
X009996Y002965D02*
X009998Y002988D01*
X010004Y003011D01*
X010014Y003032D01*
X010027Y003052D01*
X010043Y003069D01*
X010062Y003083D01*
X010083Y003093D01*
X010105Y003100D01*
X010128Y003103D01*
X010152Y003102D01*
X010174Y003097D01*
X010196Y003088D01*
X010216Y003076D01*
X010234Y003060D01*
X010248Y003042D01*
X010260Y003022D01*
X010268Y003000D01*
X010272Y002977D01*
X010272Y002953D01*
X010268Y002930D01*
X010260Y002908D01*
X010248Y002888D01*
X010234Y002870D01*
X010216Y002854D01*
X010196Y002842D01*
X010174Y002833D01*
X010152Y002828D01*
X010128Y002827D01*
X010105Y002830D01*
X010083Y002837D01*
X010062Y002847D01*
X010043Y002861D01*
X010027Y002878D01*
X010014Y002898D01*
X010004Y002919D01*
X009998Y002942D01*
X009996Y002965D01*
M02*
