G75*
%MOIN*%
%OFA0B0*%
%FSLAX24Y24*%
%IPPOS*%
%LPD*%
%AMOC8*
5,1,8,0,0,1.08239X$1,22.5*
%
%ADD10R,0.0354X0.0295*%
%ADD11R,0.0400X0.0140*%
%ADD12R,0.0402X0.0748*%
%ADD13C,0.0180*%
%ADD14C,0.0050*%
D10*
X010075Y002296D03*
X010863Y002296D03*
X010863Y003634D03*
X011091Y004213D03*
X011878Y004213D03*
X010075Y003634D03*
X011091Y005552D03*
X011878Y005552D03*
D11*
X014565Y005654D03*
X014565Y005134D03*
X015365Y005134D03*
X015365Y005394D03*
X015365Y005654D03*
D12*
X015638Y008796D03*
X014638Y008796D03*
X016638Y008796D03*
X016638Y011040D03*
X015638Y011040D03*
X014638Y011040D03*
D13*
X004382Y004481D03*
X004874Y005760D03*
X006646Y006154D03*
X009205Y004382D03*
X009500Y004382D03*
X010583Y005465D03*
X012945Y006941D03*
X013536Y007630D03*
X013831Y007926D03*
X012945Y008418D03*
X012256Y008516D03*
X010386Y009894D03*
X013437Y009993D03*
X015012Y010878D03*
X015898Y010091D03*
X016390Y009894D03*
X016390Y009599D03*
X015504Y009599D03*
X016292Y011075D03*
X017276Y011272D03*
X017374Y011567D03*
X014914Y007729D03*
X016095Y007335D03*
D14*
X015012Y007335D01*
X015012Y005367D01*
X015209Y005170D01*
X015307Y005170D01*
X015365Y005134D01*
X015406Y005367D02*
X015365Y005394D01*
X015406Y005367D02*
X015504Y005465D01*
X015603Y005465D01*
X017473Y007335D01*
X017473Y011567D01*
X017374Y011567D01*
X016193Y011567D01*
X015701Y011075D01*
X015638Y011040D01*
X015701Y010977D01*
X015898Y010977D01*
X015898Y010091D01*
X016390Y009894D02*
X013437Y009894D01*
X013437Y009993D01*
X013437Y009894D02*
X010386Y009894D01*
X012158Y008713D02*
X014619Y008713D01*
X014638Y008796D01*
X015603Y008713D02*
X015638Y008796D01*
X015701Y008811D01*
X016193Y009304D01*
X017276Y009304D01*
X017276Y011272D01*
X016638Y011040D02*
X016587Y011075D01*
X016292Y011075D01*
X015012Y010878D02*
X014914Y010977D01*
X014717Y010977D01*
X014638Y011040D01*
X015603Y008713D02*
X013831Y006941D01*
X012945Y006941D01*
X012847Y007926D02*
X013831Y007926D01*
X012847Y007926D02*
X012256Y008516D01*
X012158Y008713D02*
X010091Y006646D01*
X007138Y006646D01*
X006646Y006154D01*
X004382Y004481D02*
X006548Y002315D01*
X009993Y002315D01*
X010075Y002296D01*
X010091Y002315D01*
X010386Y002020D01*
X011075Y002020D01*
X011370Y002315D01*
X011370Y004185D01*
X011174Y004185D01*
X011091Y004213D01*
X011075Y004185D01*
X010780Y004185D01*
X010780Y004973D01*
X011075Y005268D01*
X014422Y005268D01*
X014520Y005170D01*
X014565Y005134D01*
X014815Y005268D02*
X014619Y005465D01*
X012650Y005465D01*
X014914Y007729D01*
X011961Y005465D02*
X011878Y005552D01*
X011863Y005563D01*
X011567Y005859D01*
X010681Y005859D01*
X009205Y004382D01*
X009500Y004382D02*
X009500Y003398D01*
X011174Y003398D01*
X011174Y002611D01*
X010878Y002315D01*
X010863Y002296D01*
X011174Y003398D02*
X011174Y003595D01*
X010878Y003595D01*
X010863Y003634D01*
X010780Y004185D02*
X010583Y004185D01*
X010091Y003693D01*
X010075Y003634D01*
X011878Y004213D02*
X011961Y004284D01*
X012650Y004973D01*
X014815Y004973D01*
X014914Y005071D01*
X014914Y005268D01*
X014815Y005268D01*
X012650Y005465D02*
X011961Y005465D01*
X011091Y005552D02*
X011075Y005465D01*
X010583Y005465D01*
X011075Y005465D02*
X011075Y005268D01*
M02*
