%
M48
M72
T01C0.0100
T02C0.0276
T03C0.0354
T04C0.0394
T05C0.1181
T06C0.1969
%
T01
X4382Y4481
X4874Y5760
X6646Y6154
X9205Y4382
X9500Y4382
X10583Y5465
X12945Y6941
X13536Y7630
X13831Y7926
X12945Y8418
X12256Y8516
X10386Y9894
X13437Y9993
X15012Y10878
X15898Y10091
X16390Y9894
X16390Y9599
X15504Y9599
X16292Y11075
X17276Y11272
X17374Y11567
X14914Y7729
X16095Y7335
T02
X11150Y4882
X10134Y2965
T03
X10804Y2965
X11819Y4882
T04
X3989Y5908
X1676Y4973
T05
X7680Y5367
X7680Y5563
X7680Y5760
T06
X6646Y3890
M30
