G75*
%MOIN*%
%OFA0B0*%
%FSLAX24Y24*%
%IPPOS*%
%LPD*%
%AMOC8*
5,1,8,0,0,1.08239X$1,22.5*
%
%ADD10C,0.0180*%
%ADD11C,0.0100*%
%ADD12C,0.0050*%
D10*
X004382Y004481D03*
X004874Y005760D03*
X006646Y006154D03*
X009205Y004382D03*
X009500Y004382D03*
X010583Y005465D03*
X012945Y006941D03*
X013536Y007630D03*
X013831Y007926D03*
X012945Y008418D03*
X012256Y008516D03*
X010386Y009894D03*
X013437Y009993D03*
X015012Y010878D03*
X015898Y010091D03*
X016390Y009894D03*
X016390Y009599D03*
X015504Y009599D03*
X016292Y011075D03*
X017276Y011272D03*
X017374Y011567D03*
X014914Y007729D03*
X016095Y007335D03*
D11*
X005758Y003104D02*
X004212Y003104D01*
X004113Y003202D02*
X005676Y003202D01*
X005698Y003163D02*
X005919Y002943D01*
X006189Y002787D01*
X006490Y002706D01*
X006802Y002706D01*
X007103Y002787D01*
X007373Y002943D01*
X007594Y003163D01*
X007750Y003433D01*
X007830Y003734D01*
X007830Y004046D01*
X007750Y004347D01*
X007618Y004576D01*
X007837Y004576D01*
X008127Y004696D01*
X008350Y004919D01*
X008470Y005209D01*
X008470Y005917D01*
X008350Y006208D01*
X008127Y006430D01*
X007909Y006521D01*
X008962Y006521D01*
X009035Y006594D01*
X011718Y009277D01*
X012013Y009277D01*
X012086Y009350D01*
X012899Y010163D01*
X013339Y010163D01*
X013247Y010071D01*
X013247Y009914D01*
X013359Y009803D01*
X013516Y009803D01*
X013627Y009914D01*
X013627Y010071D01*
X013536Y010163D01*
X013686Y010163D01*
X013759Y010236D01*
X014473Y010950D01*
X014822Y010950D01*
X014822Y010800D01*
X014934Y010688D01*
X015091Y010688D01*
X015202Y010800D01*
X015202Y010950D01*
X016148Y010950D01*
X016213Y010885D01*
X016370Y010885D01*
X016482Y010996D01*
X016482Y011154D01*
X016370Y011265D01*
X016213Y011265D01*
X016148Y011200D01*
X014370Y011200D01*
X013722Y010552D01*
X013722Y011686D01*
X017505Y011686D01*
X017505Y003110D01*
X015457Y003110D01*
X015340Y002993D01*
X015340Y000748D01*
X010228Y000748D01*
X010228Y002205D01*
X010111Y002322D01*
X004993Y002322D01*
X003418Y003897D01*
X002031Y003897D01*
X000779Y004970D01*
X000779Y006313D01*
X000872Y006371D01*
X001367Y005226D01*
X001339Y005198D01*
X001279Y005052D01*
X001279Y004894D01*
X001339Y004748D01*
X001451Y004636D01*
X001597Y004576D01*
X001755Y004576D01*
X001900Y004636D01*
X002012Y004748D01*
X002070Y004888D01*
X002438Y005033D01*
X002568Y004719D01*
X002567Y004717D01*
X002600Y004643D01*
X002631Y004568D01*
X002633Y004567D01*
X002634Y004565D01*
X002709Y004535D01*
X002784Y004504D01*
X002786Y004505D01*
X002788Y004504D01*
X002862Y004537D01*
X002937Y004568D01*
X002938Y004570D01*
X003492Y004812D01*
X003567Y004843D01*
X003568Y004845D01*
X003570Y004846D01*
X003599Y004922D01*
X003630Y004996D01*
X003629Y004999D01*
X003630Y005001D01*
X003598Y005075D01*
X003438Y005461D01*
X003743Y005592D01*
X003764Y005571D01*
X003910Y005511D01*
X004068Y005511D01*
X004213Y005571D01*
X004325Y005683D01*
X004385Y005829D01*
X004385Y005987D01*
X004325Y006133D01*
X004213Y006244D01*
X004068Y006305D01*
X004057Y006305D01*
X003570Y007434D01*
X003809Y007434D01*
X004778Y006696D01*
X004827Y006647D01*
X004842Y006647D01*
X004855Y006638D01*
X004923Y006647D01*
X005584Y006647D01*
X004888Y005950D01*
X004796Y005950D01*
X004684Y005839D01*
X004684Y005682D01*
X004796Y005570D01*
X004953Y005570D01*
X005064Y005682D01*
X005064Y005773D01*
X005812Y006521D01*
X007451Y006521D01*
X007232Y006430D01*
X007009Y006208D01*
X006889Y005917D01*
X006889Y005209D01*
X006963Y005031D01*
X006802Y005074D01*
X006490Y005074D01*
X006189Y004994D01*
X005919Y004838D01*
X005698Y004617D01*
X005543Y004347D01*
X005462Y004046D01*
X005462Y003734D01*
X005543Y003433D01*
X005698Y003163D01*
X005619Y003301D02*
X004015Y003301D01*
X003916Y003399D02*
X005562Y003399D01*
X005525Y003498D02*
X003818Y003498D01*
X003719Y003596D02*
X005499Y003596D01*
X005472Y003695D02*
X003621Y003695D01*
X003522Y003793D02*
X005462Y003793D01*
X005462Y003892D02*
X003424Y003892D01*
X004192Y004402D02*
X004304Y004291D01*
X004461Y004291D01*
X004572Y004402D01*
X004572Y004559D01*
X004461Y004671D01*
X004304Y004671D01*
X004192Y004559D01*
X004192Y004402D01*
X004210Y004384D02*
X001463Y004384D01*
X001348Y004483D02*
X004192Y004483D01*
X004214Y004581D02*
X002963Y004581D01*
X003188Y004680D02*
X005761Y004680D01*
X005677Y004581D02*
X004551Y004581D01*
X004572Y004483D02*
X005621Y004483D01*
X005564Y004384D02*
X004554Y004384D01*
X005473Y004089D02*
X001808Y004089D01*
X001693Y004187D02*
X005500Y004187D01*
X005526Y004286D02*
X001578Y004286D01*
X001585Y004581D02*
X001233Y004581D01*
X001118Y004680D02*
X001408Y004680D01*
X001327Y004778D02*
X001004Y004778D01*
X000889Y004877D02*
X001286Y004877D01*
X001279Y004975D02*
X000779Y004975D01*
X000779Y005074D02*
X001288Y005074D01*
X001329Y005172D02*
X000779Y005172D01*
X000779Y005271D02*
X001348Y005271D01*
X001305Y005369D02*
X000779Y005369D01*
X000779Y005468D02*
X001263Y005468D01*
X001220Y005566D02*
X000779Y005566D01*
X000779Y005665D02*
X001177Y005665D01*
X001135Y005763D02*
X000779Y005763D01*
X000779Y005862D02*
X001092Y005862D01*
X001050Y005960D02*
X000779Y005960D01*
X000779Y006059D02*
X001007Y006059D01*
X000964Y006157D02*
X000779Y006157D01*
X000779Y006256D02*
X000922Y006256D01*
X000879Y006354D02*
X000845Y006354D01*
X002065Y004877D02*
X002503Y004877D01*
X002462Y004975D02*
X002290Y004975D01*
X002544Y004778D02*
X002024Y004778D01*
X001943Y004680D02*
X002584Y004680D01*
X002625Y004581D02*
X001767Y004581D01*
X001923Y003990D02*
X005462Y003990D01*
X005859Y004778D02*
X003413Y004778D01*
X003582Y004877D02*
X005986Y004877D01*
X006157Y004975D02*
X003621Y004975D01*
X003598Y005074D02*
X006487Y005074D01*
X006805Y005074D02*
X006945Y005074D01*
X006904Y005172D02*
X003558Y005172D01*
X003517Y005271D02*
X006889Y005271D01*
X006889Y005369D02*
X003476Y005369D01*
X003452Y005468D02*
X006889Y005468D01*
X006889Y005566D02*
X004200Y005566D01*
X004306Y005665D02*
X004701Y005665D01*
X004684Y005763D02*
X004358Y005763D01*
X004385Y005862D02*
X004707Y005862D01*
X004897Y005960D02*
X004385Y005960D01*
X004356Y006059D02*
X004996Y006059D01*
X005094Y006157D02*
X004301Y006157D01*
X004186Y006256D02*
X005193Y006256D01*
X005291Y006354D02*
X004036Y006354D01*
X003993Y006453D02*
X005390Y006453D01*
X005488Y006551D02*
X003951Y006551D01*
X003908Y006650D02*
X004824Y006650D01*
X004710Y006748D02*
X003866Y006748D01*
X003823Y006847D02*
X004580Y006847D01*
X004451Y006945D02*
X003781Y006945D01*
X003739Y007044D02*
X004322Y007044D01*
X004192Y007142D02*
X003696Y007142D01*
X003654Y007241D02*
X004063Y007241D01*
X003934Y007339D02*
X003611Y007339D01*
X005349Y006059D02*
X006473Y006059D01*
X006456Y006075D02*
X006567Y005964D01*
X006725Y005964D01*
X006836Y006075D01*
X006836Y006233D01*
X006725Y006344D01*
X006567Y006344D01*
X006456Y006233D01*
X006456Y006075D01*
X006456Y006157D02*
X005448Y006157D01*
X005546Y006256D02*
X006479Y006256D01*
X006813Y006256D02*
X007057Y006256D01*
X006988Y006157D02*
X006836Y006157D01*
X006819Y006059D02*
X006947Y006059D01*
X006907Y005960D02*
X005251Y005960D01*
X005152Y005862D02*
X006889Y005862D01*
X006889Y005763D02*
X005064Y005763D01*
X005047Y005665D02*
X006889Y005665D01*
X007155Y006354D02*
X005645Y006354D01*
X005743Y006453D02*
X007285Y006453D01*
X008074Y006453D02*
X017505Y006453D01*
X017505Y006551D02*
X008992Y006551D01*
X009090Y006650D02*
X017505Y006650D01*
X017505Y006748D02*
X009189Y006748D01*
X009287Y006847D02*
X012771Y006847D01*
X012755Y006863D02*
X012867Y006751D01*
X013024Y006751D01*
X013135Y006863D01*
X013135Y007020D01*
X013024Y007131D01*
X012867Y007131D01*
X012755Y007020D01*
X012755Y006863D01*
X012755Y006945D02*
X009386Y006945D01*
X009484Y007044D02*
X012779Y007044D01*
X013112Y007044D02*
X017505Y007044D01*
X017505Y007142D02*
X009583Y007142D01*
X009681Y007241D02*
X015921Y007241D01*
X015905Y007256D02*
X016016Y007145D01*
X016174Y007145D01*
X016285Y007256D01*
X016285Y007414D01*
X016174Y007525D01*
X016016Y007525D01*
X015905Y007414D01*
X015905Y007256D01*
X015905Y007339D02*
X009780Y007339D01*
X009878Y007438D02*
X015929Y007438D01*
X016261Y007438D02*
X017505Y007438D01*
X017505Y007536D02*
X013710Y007536D01*
X013726Y007552D02*
X013615Y007440D01*
X013457Y007440D01*
X013346Y007552D01*
X013346Y007709D01*
X013457Y007820D01*
X013615Y007820D01*
X013726Y007709D01*
X013726Y007552D01*
X013726Y007635D02*
X014739Y007635D01*
X014724Y007650D02*
X014835Y007539D01*
X014992Y007539D01*
X015104Y007650D01*
X015104Y007807D01*
X014992Y007919D01*
X014835Y007919D01*
X014724Y007807D01*
X014724Y007650D01*
X014724Y007733D02*
X013702Y007733D01*
X013752Y007736D02*
X013910Y007736D01*
X014021Y007847D01*
X014021Y008004D01*
X013910Y008116D01*
X013752Y008116D01*
X013641Y008004D01*
X013641Y007847D01*
X013752Y007736D01*
X013656Y007832D02*
X010272Y007832D01*
X010371Y007930D02*
X013641Y007930D01*
X013665Y008029D02*
X010469Y008029D01*
X010568Y008127D02*
X017505Y008127D01*
X017505Y008029D02*
X013997Y008029D01*
X014021Y007930D02*
X017505Y007930D01*
X017505Y007832D02*
X015080Y007832D01*
X015104Y007733D02*
X017505Y007733D01*
X017505Y007635D02*
X015088Y007635D01*
X014748Y007832D02*
X014006Y007832D01*
X013370Y007733D02*
X010174Y007733D01*
X010075Y007635D02*
X013346Y007635D01*
X013361Y007536D02*
X009977Y007536D01*
X010666Y008226D02*
X017505Y008226D01*
X017505Y008324D02*
X013120Y008324D01*
X013135Y008339D02*
X013024Y008228D01*
X012867Y008228D01*
X012755Y008339D01*
X012755Y008496D01*
X012867Y008608D01*
X013024Y008608D01*
X013135Y008496D01*
X013135Y008339D01*
X013135Y008423D02*
X017505Y008423D01*
X017505Y008521D02*
X013111Y008521D01*
X012780Y008521D02*
X012446Y008521D01*
X012446Y008595D02*
X012335Y008706D01*
X012178Y008706D01*
X012066Y008595D01*
X012066Y008437D01*
X012178Y008326D01*
X012335Y008326D01*
X012446Y008437D01*
X012446Y008595D01*
X012422Y008620D02*
X017505Y008620D01*
X017505Y008718D02*
X011159Y008718D01*
X011257Y008817D02*
X017505Y008817D01*
X017505Y008915D02*
X011356Y008915D01*
X011454Y009014D02*
X017505Y009014D01*
X017505Y009112D02*
X011553Y009112D01*
X011651Y009211D02*
X017505Y009211D01*
X017505Y009309D02*
X012045Y009309D01*
X012143Y009408D02*
X017505Y009408D01*
X017505Y009506D02*
X016566Y009506D01*
X016580Y009520D02*
X016469Y009409D01*
X016311Y009409D01*
X016246Y009474D01*
X015648Y009474D01*
X015583Y009409D01*
X015426Y009409D01*
X015314Y009520D01*
X015314Y009678D01*
X015426Y009789D01*
X015583Y009789D01*
X015648Y009724D01*
X016246Y009724D01*
X016269Y009746D01*
X016200Y009815D01*
X016200Y009973D01*
X016311Y010084D01*
X016469Y010084D01*
X016580Y009973D01*
X016580Y009815D01*
X016511Y009746D01*
X016580Y009678D01*
X016580Y009520D01*
X016580Y009605D02*
X017505Y009605D01*
X017505Y009703D02*
X016555Y009703D01*
X016566Y009802D02*
X017505Y009802D01*
X017505Y009900D02*
X016580Y009900D01*
X016554Y009999D02*
X017505Y009999D01*
X017505Y010097D02*
X013602Y010097D01*
X013627Y009999D02*
X016226Y009999D01*
X016200Y009900D02*
X013614Y009900D01*
X013719Y010196D02*
X017505Y010196D01*
X017505Y010294D02*
X013817Y010294D01*
X013916Y010393D02*
X017505Y010393D01*
X017505Y010491D02*
X014014Y010491D01*
X014113Y010590D02*
X017505Y010590D01*
X017505Y010688D02*
X014211Y010688D01*
X014310Y010787D02*
X014835Y010787D01*
X014822Y010885D02*
X014408Y010885D01*
X014252Y011082D02*
X013722Y011082D01*
X013722Y010984D02*
X014153Y010984D01*
X014055Y010885D02*
X013722Y010885D01*
X013722Y010787D02*
X013956Y010787D01*
X013858Y010688D02*
X013722Y010688D01*
X013722Y010590D02*
X013759Y010590D01*
X013722Y011181D02*
X014350Y011181D01*
X013722Y011279D02*
X017086Y011279D01*
X017086Y011351D02*
X017086Y011193D01*
X017197Y011082D01*
X017355Y011082D01*
X017466Y011193D01*
X017466Y011351D01*
X017355Y011462D01*
X017197Y011462D01*
X017086Y011351D01*
X017113Y011378D02*
X013722Y011378D01*
X013722Y011476D02*
X017505Y011476D01*
X017505Y011378D02*
X017439Y011378D01*
X017466Y011279D02*
X017505Y011279D01*
X017505Y011181D02*
X017453Y011181D01*
X017505Y011082D02*
X016482Y011082D01*
X016469Y010984D02*
X017505Y010984D01*
X017505Y010885D02*
X015202Y010885D01*
X015189Y010787D02*
X017505Y010787D01*
X017099Y011181D02*
X016455Y011181D01*
X017505Y011575D02*
X013722Y011575D01*
X013722Y011673D02*
X017505Y011673D01*
X016214Y009802D02*
X012537Y009802D01*
X012636Y009900D02*
X013261Y009900D01*
X013247Y009999D02*
X012734Y009999D01*
X012833Y010097D02*
X013273Y010097D01*
X012439Y009703D02*
X015340Y009703D01*
X015314Y009605D02*
X012340Y009605D01*
X012242Y009506D02*
X015328Y009506D01*
X012755Y008423D02*
X012431Y008423D01*
X012081Y008423D02*
X010863Y008423D01*
X010962Y008521D02*
X012066Y008521D01*
X012091Y008620D02*
X011060Y008620D01*
X010765Y008324D02*
X012770Y008324D01*
X013135Y006945D02*
X017505Y006945D01*
X017505Y006847D02*
X013119Y006847D01*
X012033Y005202D02*
X011894Y005259D01*
X011744Y005259D01*
X011606Y005202D01*
X011500Y005096D01*
X011463Y005009D01*
X011436Y005074D01*
X011341Y005169D01*
X011217Y005220D01*
X011083Y005220D01*
X010959Y005169D01*
X010864Y005074D01*
X010812Y004949D01*
X010812Y004815D01*
X010864Y004691D01*
X010959Y004596D01*
X011083Y004544D01*
X011217Y004544D01*
X011341Y004596D01*
X011436Y004691D01*
X011463Y004756D01*
X011500Y004669D01*
X011606Y004563D01*
X011744Y004505D01*
X011894Y004505D01*
X012033Y004563D01*
X012139Y004669D01*
X012196Y004807D01*
X012196Y004957D01*
X012139Y005096D01*
X012033Y005202D01*
X012063Y005172D02*
X017505Y005172D01*
X017505Y005074D02*
X012148Y005074D01*
X012189Y004975D02*
X017505Y004975D01*
X017505Y004877D02*
X012196Y004877D01*
X012184Y004778D02*
X017505Y004778D01*
X017505Y004680D02*
X012144Y004680D01*
X012051Y004581D02*
X017505Y004581D01*
X017505Y004483D02*
X009669Y004483D01*
X009690Y004461D02*
X009579Y004572D01*
X009422Y004572D01*
X009353Y004503D01*
X009284Y004572D01*
X009126Y004572D01*
X009015Y004461D01*
X009015Y004304D01*
X009126Y004192D01*
X009284Y004192D01*
X009353Y004261D01*
X009422Y004192D01*
X009579Y004192D01*
X009690Y004304D01*
X009690Y004461D01*
X009690Y004384D02*
X017505Y004384D01*
X017505Y004286D02*
X009672Y004286D01*
X009033Y004286D02*
X007766Y004286D01*
X007793Y004187D02*
X017505Y004187D01*
X017505Y004089D02*
X007819Y004089D01*
X007830Y003990D02*
X017505Y003990D01*
X017505Y003892D02*
X007830Y003892D01*
X007830Y003793D02*
X017505Y003793D01*
X017505Y003695D02*
X007820Y003695D01*
X007793Y003596D02*
X017505Y003596D01*
X017505Y003498D02*
X007767Y003498D01*
X007730Y003399D02*
X017505Y003399D01*
X017505Y003301D02*
X010979Y003301D01*
X011017Y003285D02*
X010879Y003342D01*
X010729Y003342D01*
X010590Y003285D01*
X010484Y003179D01*
X010448Y003091D01*
X010421Y003156D01*
X010326Y003251D01*
X010201Y003303D01*
X010067Y003303D01*
X009943Y003251D01*
X009848Y003156D01*
X009796Y003032D01*
X009796Y002898D01*
X009848Y002774D01*
X009943Y002679D01*
X010067Y002627D01*
X010201Y002627D01*
X010326Y002679D01*
X010421Y002774D01*
X010448Y002839D01*
X010484Y002751D01*
X010590Y002645D01*
X010729Y002588D01*
X010879Y002588D01*
X011017Y002645D01*
X011123Y002751D01*
X011181Y002890D01*
X011181Y003040D01*
X011123Y003179D01*
X011017Y003285D01*
X011100Y003202D02*
X017505Y003202D01*
X015451Y003104D02*
X011154Y003104D01*
X011181Y003005D02*
X015352Y003005D01*
X015340Y002907D02*
X011181Y002907D01*
X011147Y002808D02*
X015340Y002808D01*
X015340Y002710D02*
X011081Y002710D01*
X010935Y002611D02*
X015340Y002611D01*
X015340Y002513D02*
X004803Y002513D01*
X004704Y002611D02*
X010672Y002611D01*
X010526Y002710D02*
X010357Y002710D01*
X010435Y002808D02*
X010460Y002808D01*
X010442Y003104D02*
X010453Y003104D01*
X010507Y003202D02*
X010375Y003202D01*
X010207Y003301D02*
X010628Y003301D01*
X010062Y003301D02*
X007673Y003301D01*
X007616Y003202D02*
X009894Y003202D01*
X009826Y003104D02*
X007534Y003104D01*
X007436Y003005D02*
X009796Y003005D01*
X009796Y002907D02*
X007311Y002907D01*
X007140Y002808D02*
X009834Y002808D01*
X009912Y002710D02*
X006815Y002710D01*
X006477Y002710D02*
X004606Y002710D01*
X004507Y002808D02*
X006152Y002808D01*
X005981Y002907D02*
X004409Y002907D01*
X004310Y003005D02*
X005856Y003005D01*
X004901Y002414D02*
X015340Y002414D01*
X015340Y002316D02*
X010118Y002316D01*
X010216Y002217D02*
X015340Y002217D01*
X015340Y002119D02*
X010228Y002119D01*
X010228Y002020D02*
X015340Y002020D01*
X015340Y001922D02*
X010228Y001922D01*
X010228Y001823D02*
X015340Y001823D01*
X015340Y001725D02*
X010228Y001725D01*
X010228Y001626D02*
X015340Y001626D01*
X015340Y001528D02*
X010228Y001528D01*
X010228Y001429D02*
X015340Y001429D01*
X015340Y001331D02*
X010228Y001331D01*
X010228Y001232D02*
X015340Y001232D01*
X015340Y001134D02*
X010228Y001134D01*
X010228Y001035D02*
X015340Y001035D01*
X015340Y000937D02*
X010228Y000937D01*
X010228Y000838D02*
X015340Y000838D01*
X011587Y004581D02*
X011305Y004581D01*
X011425Y004680D02*
X011495Y004680D01*
X010995Y004581D02*
X007849Y004581D01*
X007672Y004483D02*
X009037Y004483D01*
X009015Y004384D02*
X007728Y004384D01*
X008087Y004680D02*
X010875Y004680D01*
X010828Y004778D02*
X008209Y004778D01*
X008308Y004877D02*
X010812Y004877D01*
X010823Y004975D02*
X008373Y004975D01*
X008414Y005074D02*
X010864Y005074D01*
X010967Y005172D02*
X008455Y005172D01*
X008470Y005271D02*
X017505Y005271D01*
X017505Y005369D02*
X010756Y005369D01*
X010773Y005386D02*
X010662Y005275D01*
X010504Y005275D01*
X010393Y005386D01*
X010393Y005544D01*
X010504Y005655D01*
X010662Y005655D01*
X010773Y005544D01*
X010773Y005386D01*
X010773Y005468D02*
X017505Y005468D01*
X017505Y005566D02*
X010751Y005566D01*
X010415Y005566D02*
X008470Y005566D01*
X008470Y005468D02*
X010393Y005468D01*
X010410Y005369D02*
X008470Y005369D01*
X008470Y005665D02*
X017505Y005665D01*
X017505Y005763D02*
X008470Y005763D01*
X008470Y005862D02*
X017505Y005862D01*
X017505Y005960D02*
X008452Y005960D01*
X008412Y006059D02*
X017505Y006059D01*
X017505Y006157D02*
X008371Y006157D01*
X008302Y006256D02*
X017505Y006256D01*
X017505Y006354D02*
X008204Y006354D01*
X011333Y005172D02*
X011576Y005172D01*
X011490Y005074D02*
X011436Y005074D01*
X016269Y007241D02*
X017505Y007241D01*
X017505Y007339D02*
X016285Y007339D01*
X003777Y005566D02*
X003682Y005566D01*
D12*
X004874Y005760D02*
X005760Y006646D01*
X008910Y006646D01*
X011666Y009402D01*
X011961Y009402D01*
X012847Y010288D01*
X013634Y010288D01*
X014422Y011075D01*
X016292Y011075D01*
X016390Y009599D02*
X015504Y009599D01*
M02*
