G75*
%MOIN*%
%OFA0B0*%
%FSLAX24Y24*%
%IPPOS*%
%LPD*%
%AMOC8*
5,1,8,0,0,1.08239X$1,22.5*
%
%ADD10R,0.0551X0.0236*%
%ADD11R,0.0433X0.1654*%
%ADD12R,0.1063X0.1299*%
%ADD13R,0.0370X0.0300*%
%ADD14R,0.0591X0.1299*%
%ADD15R,0.0220X0.0520*%
%ADD16R,0.0440X0.0710*%
%ADD17R,0.0340X0.0380*%
%ADD18R,0.0260X0.0370*%
%ADD19R,0.0710X0.0440*%
%ADD20R,0.0472X0.0276*%
%ADD21R,0.0890X0.1020*%
%ADD22R,0.0472X0.0984*%
%ADD23R,0.0580X0.0140*%
%ADD24R,0.0300X0.0370*%
%ADD25R,0.0512X0.0492*%
%ADD26R,0.0669X0.0630*%
%ADD27R,0.0866X0.0984*%
D10*
X015648Y006069D03*
X015648Y006569D03*
X015648Y007069D03*
X015648Y007569D03*
D11*
X013455Y006819D03*
D12*
X014479Y006819D03*
D13*
X016807Y008537D03*
X016807Y009197D03*
X013067Y009336D03*
X013067Y009996D03*
X009957Y010153D03*
X009957Y009493D03*
D14*
X014768Y004359D03*
X017170Y004359D03*
D15*
X015945Y008394D03*
X015575Y008394D03*
X015205Y008394D03*
X014398Y008394D03*
X014028Y008394D03*
X013658Y008394D03*
X013658Y009394D03*
X014398Y009394D03*
X015205Y009394D03*
X015945Y009394D03*
D16*
X010834Y008622D03*
X009654Y008622D03*
D17*
X011641Y009721D03*
X012281Y009721D03*
X010112Y005398D03*
X009472Y005398D03*
D18*
X011661Y009130D03*
X012221Y009130D03*
D19*
X011603Y004268D03*
X011603Y003088D03*
D20*
X012615Y003040D03*
X014071Y003040D03*
X006248Y006119D03*
X004792Y006119D03*
D21*
X012647Y001666D03*
X014827Y001666D03*
D22*
X011205Y011189D03*
X009906Y011189D03*
D23*
X014512Y011087D03*
X014512Y011337D03*
X014512Y011597D03*
X014512Y010827D03*
X014512Y010567D03*
X014512Y010317D03*
X014512Y010057D03*
X016812Y010057D03*
X016812Y010317D03*
X016812Y010567D03*
X016812Y010827D03*
X016812Y011087D03*
X016812Y011337D03*
X016812Y011597D03*
D24*
X010051Y006091D03*
X009391Y006091D03*
X009411Y004756D03*
X010071Y004756D03*
X009980Y004008D03*
X009320Y004008D03*
X005452Y005347D03*
X004792Y005347D03*
D25*
G36*
X011276Y005998D02*
X011218Y006505D01*
X011706Y006560D01*
X011764Y006053D01*
X011276Y005998D01*
G37*
G36*
X012177Y006099D02*
X012119Y006606D01*
X012607Y006661D01*
X012665Y006154D01*
X012177Y006099D01*
G37*
G36*
X011166Y006978D02*
X011108Y007485D01*
X011596Y007540D01*
X011654Y007033D01*
X011166Y006978D01*
G37*
G36*
X012067Y007079D02*
X012009Y007586D01*
X012497Y007641D01*
X012555Y007134D01*
X012067Y007079D01*
G37*
D26*
G36*
X004176Y006881D02*
X003565Y006613D01*
X003312Y007189D01*
X003923Y007457D01*
X004176Y006881D01*
G37*
G36*
X001545Y005726D02*
X000934Y005458D01*
X000681Y006034D01*
X001292Y006302D01*
X001545Y005726D01*
G37*
D27*
G36*
X002881Y004593D02*
X002089Y004245D01*
X001693Y005145D01*
X002485Y005493D01*
X002881Y004593D01*
G37*
G36*
X004287Y005210D02*
X003495Y004862D01*
X003099Y005762D01*
X003891Y006110D01*
X004287Y005210D01*
G37*
M02*
