G75*
%MOIN*%
%OFA0B0*%
%FSLAX24Y24*%
%IPPOS*%
%LPD*%
%AMOC8*
5,1,8,0,0,1.08239X$1,22.5*
%
%ADD10C,0.2049*%
%ADD11C,0.1261*%
%ADD12C,0.0474*%
%ADD13C,0.0050*%
%ADD14R,0.0631X0.0316*%
%ADD15R,0.0513X0.1734*%
%ADD16R,0.1143X0.1379*%
%ADD17R,0.0450X0.0380*%
%ADD18R,0.0671X0.1379*%
%ADD19R,0.0300X0.0600*%
%ADD20R,0.0520X0.0790*%
%ADD21R,0.0420X0.0460*%
%ADD22R,0.0340X0.0450*%
%ADD23R,0.0790X0.0520*%
%ADD24R,0.0552X0.0356*%
%ADD25R,0.0970X0.1100*%
%ADD26R,0.0552X0.1064*%
%ADD27R,0.0660X0.0220*%
%ADD28R,0.0380X0.0450*%
%ADD29R,0.0592X0.0572*%
%ADD30R,0.0749X0.0710*%
%ADD31R,0.0946X0.1064*%
%ADD32C,0.0434*%
%ADD33C,0.0356*%
D10*
X006646Y003890D03*
D11*
X007680Y005367D03*
X007680Y005563D03*
X007680Y005760D03*
D12*
X003989Y005908D03*
X001676Y004973D03*
D13*
X010583Y002512D02*
X010583Y000937D01*
X011961Y000937D01*
X011961Y002709D01*
X011174Y002709D01*
X011174Y002512D01*
X010583Y002512D01*
X010583Y002507D02*
X011961Y002507D01*
X011961Y002555D02*
X011174Y002555D01*
X011174Y002604D02*
X011961Y002604D01*
X011961Y002652D02*
X011174Y002652D01*
X011174Y002701D02*
X011961Y002701D01*
X011961Y002458D02*
X010583Y002458D01*
X010583Y002410D02*
X011961Y002410D01*
X011961Y002361D02*
X010583Y002361D01*
X010583Y002313D02*
X011961Y002313D01*
X011961Y002264D02*
X010583Y002264D01*
X010583Y002216D02*
X011961Y002216D01*
X011961Y002167D02*
X010583Y002167D01*
X010583Y002119D02*
X011961Y002119D01*
X011961Y002070D02*
X010583Y002070D01*
X010583Y002022D02*
X011961Y002022D01*
X011961Y001973D02*
X010583Y001973D01*
X010583Y001925D02*
X011961Y001925D01*
X011961Y001876D02*
X010583Y001876D01*
X010583Y001828D02*
X011961Y001828D01*
X011961Y001779D02*
X010583Y001779D01*
X010583Y001731D02*
X011961Y001731D01*
X011961Y001682D02*
X010583Y001682D01*
X010583Y001634D02*
X011961Y001634D01*
X011961Y001585D02*
X010583Y001585D01*
X010583Y001537D02*
X011961Y001537D01*
X011961Y001488D02*
X010583Y001488D01*
X010583Y001440D02*
X011961Y001440D01*
X011961Y001391D02*
X010583Y001391D01*
X010583Y001343D02*
X011961Y001343D01*
X011961Y001294D02*
X010583Y001294D01*
X010583Y001245D02*
X011961Y001245D01*
X011961Y001197D02*
X010583Y001197D01*
X010583Y001148D02*
X011961Y001148D01*
X011961Y001100D02*
X010583Y001100D01*
X010583Y001051D02*
X011961Y001051D01*
X011961Y001003D02*
X010583Y001003D01*
X010583Y000954D02*
X011961Y000954D01*
X012748Y003496D02*
X014520Y003496D01*
X014717Y003693D01*
X014717Y005859D01*
X013142Y005859D01*
X012748Y005465D01*
X012748Y003496D01*
X012748Y003525D02*
X014549Y003525D01*
X014597Y003574D02*
X012748Y003574D01*
X012748Y003622D02*
X014646Y003622D01*
X014694Y003671D02*
X012748Y003671D01*
X012748Y003719D02*
X014717Y003719D01*
X014717Y003768D02*
X012748Y003768D01*
X012748Y003816D02*
X014717Y003816D01*
X014717Y003865D02*
X012748Y003865D01*
X012748Y003913D02*
X014717Y003913D01*
X014717Y003962D02*
X012748Y003962D01*
X012748Y004010D02*
X014717Y004010D01*
X014717Y004059D02*
X012748Y004059D01*
X012748Y004107D02*
X014717Y004107D01*
X014717Y004156D02*
X012748Y004156D01*
X012748Y004204D02*
X014717Y004204D01*
X014717Y004253D02*
X012748Y004253D01*
X012748Y004301D02*
X014717Y004301D01*
X014717Y004350D02*
X012748Y004350D01*
X012748Y004398D02*
X014717Y004398D01*
X014717Y004447D02*
X012748Y004447D01*
X012748Y004495D02*
X014717Y004495D01*
X014717Y004544D02*
X012748Y004544D01*
X012748Y004592D02*
X014717Y004592D01*
X014717Y004641D02*
X012748Y004641D01*
X012748Y004689D02*
X014717Y004689D01*
X014717Y004738D02*
X012748Y004738D01*
X012748Y004786D02*
X014717Y004786D01*
X014717Y004835D02*
X012748Y004835D01*
X012748Y004883D02*
X014717Y004883D01*
X014717Y004932D02*
X012748Y004932D01*
X012748Y004980D02*
X014717Y004980D01*
X014717Y005029D02*
X012748Y005029D01*
X012748Y005077D02*
X014717Y005077D01*
X014717Y005126D02*
X012748Y005126D01*
X012748Y005174D02*
X014717Y005174D01*
X014717Y005223D02*
X012748Y005223D01*
X012748Y005271D02*
X014717Y005271D01*
X014717Y005320D02*
X012748Y005320D01*
X012748Y005368D02*
X014717Y005368D01*
X014717Y005417D02*
X012748Y005417D01*
X012748Y005465D02*
X014717Y005465D01*
X014717Y005514D02*
X012797Y005514D01*
X012845Y005562D02*
X014717Y005562D01*
X014717Y005611D02*
X012894Y005611D01*
X012942Y005659D02*
X014717Y005659D01*
X014717Y005708D02*
X012991Y005708D01*
X013039Y005756D02*
X014717Y005756D01*
X014717Y005805D02*
X013088Y005805D01*
X013136Y005853D02*
X014717Y005853D01*
X015701Y005853D02*
X017473Y005853D01*
X017473Y005805D02*
X015701Y005805D01*
X015701Y005756D02*
X017473Y005756D01*
X017473Y005708D02*
X015701Y005708D01*
X015701Y005662D02*
X017473Y005662D01*
X017473Y008221D01*
X017276Y008221D01*
X016095Y007040D01*
X015701Y007040D01*
X015701Y005662D01*
X015701Y005902D02*
X017473Y005902D01*
X017473Y005950D02*
X015701Y005950D01*
X015701Y005999D02*
X017473Y005999D01*
X017473Y006047D02*
X015701Y006047D01*
X015701Y006096D02*
X017473Y006096D01*
X017473Y006144D02*
X015701Y006144D01*
X015701Y006193D02*
X017473Y006193D01*
X017473Y006241D02*
X015701Y006241D01*
X015701Y006290D02*
X017473Y006290D01*
X017473Y006338D02*
X015701Y006338D01*
X015701Y006387D02*
X017473Y006387D01*
X017473Y006435D02*
X015701Y006435D01*
X015701Y006484D02*
X017473Y006484D01*
X017473Y006532D02*
X015701Y006532D01*
X015701Y006581D02*
X017473Y006581D01*
X017473Y006629D02*
X015701Y006629D01*
X015701Y006678D02*
X017473Y006678D01*
X017473Y006726D02*
X015701Y006726D01*
X015701Y006775D02*
X017473Y006775D01*
X017473Y006823D02*
X015701Y006823D01*
X015701Y006872D02*
X017473Y006872D01*
X017473Y006920D02*
X015701Y006920D01*
X015701Y006969D02*
X017473Y006969D01*
X017473Y007017D02*
X015701Y007017D01*
X016121Y007066D02*
X017473Y007066D01*
X017473Y007114D02*
X016169Y007114D01*
X016218Y007163D02*
X017473Y007163D01*
X017473Y007211D02*
X016266Y007211D01*
X016315Y007260D02*
X017473Y007260D01*
X017473Y007308D02*
X016363Y007308D01*
X016412Y007357D02*
X017473Y007357D01*
X017473Y007405D02*
X016460Y007405D01*
X016509Y007454D02*
X017473Y007454D01*
X017473Y007502D02*
X016557Y007502D01*
X016606Y007551D02*
X017473Y007551D01*
X017473Y007599D02*
X016654Y007599D01*
X016703Y007648D02*
X017473Y007648D01*
X017473Y007696D02*
X016751Y007696D01*
X016800Y007745D02*
X017473Y007745D01*
X017473Y007793D02*
X016848Y007793D01*
X016897Y007842D02*
X017473Y007842D01*
X017473Y007890D02*
X016945Y007890D01*
X016994Y007939D02*
X017473Y007939D01*
X017473Y007987D02*
X017042Y007987D01*
X017091Y008036D02*
X017473Y008036D01*
X017473Y008084D02*
X017139Y008084D01*
X017188Y008133D02*
X017473Y008133D01*
X017473Y008181D02*
X017236Y008181D01*
D14*
X015648Y007569D03*
X015648Y007069D03*
X015648Y006569D03*
X015648Y006069D03*
D15*
X013455Y006819D03*
D16*
X014479Y006819D03*
D17*
X016807Y008537D03*
X016807Y009197D03*
X013067Y009336D03*
X013067Y009996D03*
X009957Y010153D03*
X009957Y009493D03*
D18*
X014768Y004359D03*
X017170Y004359D03*
D19*
X015945Y008394D03*
X015575Y008394D03*
X015205Y008394D03*
X014398Y008394D03*
X014028Y008394D03*
X013658Y008394D03*
X013658Y009394D03*
X014398Y009394D03*
X015205Y009394D03*
X015945Y009394D03*
D20*
X010834Y008622D03*
X009654Y008622D03*
D21*
X011641Y009721D03*
X012281Y009721D03*
X010112Y005398D03*
X009472Y005398D03*
D22*
X011661Y009130D03*
X012221Y009130D03*
D23*
X011603Y004268D03*
X011603Y003088D03*
D24*
X012615Y003040D03*
X014071Y003040D03*
X006248Y006119D03*
X004792Y006119D03*
D25*
X012647Y001666D03*
X014827Y001666D03*
D26*
X011205Y011189D03*
X009906Y011189D03*
D27*
X014512Y011087D03*
X014512Y011337D03*
X014512Y011597D03*
X014512Y010827D03*
X014512Y010567D03*
X014512Y010317D03*
X014512Y010057D03*
X016812Y010057D03*
X016812Y010317D03*
X016812Y010567D03*
X016812Y010827D03*
X016812Y011087D03*
X016812Y011337D03*
X016812Y011597D03*
D28*
X010051Y006091D03*
X009391Y006091D03*
X009411Y004756D03*
X010071Y004756D03*
X009980Y004008D03*
X009320Y004008D03*
X005452Y005347D03*
X004792Y005347D03*
D29*
G36*
X011240Y005953D02*
X011174Y006541D01*
X011742Y006605D01*
X011808Y006017D01*
X011240Y005953D01*
G37*
G36*
X012141Y006054D02*
X012075Y006642D01*
X012643Y006706D01*
X012709Y006118D01*
X012141Y006054D01*
G37*
G36*
X011130Y006933D02*
X011064Y007521D01*
X011632Y007585D01*
X011698Y006997D01*
X011130Y006933D01*
G37*
G36*
X012031Y007034D02*
X011965Y007622D01*
X012533Y007686D01*
X012599Y007098D01*
X012031Y007034D01*
G37*
D30*
G36*
X004229Y006861D02*
X003545Y006560D01*
X003259Y007209D01*
X003943Y007510D01*
X004229Y006861D01*
G37*
G36*
X001598Y005706D02*
X000914Y005405D01*
X000628Y006054D01*
X001312Y006355D01*
X001598Y005706D01*
G37*
D31*
G36*
X002933Y004572D02*
X002068Y004192D01*
X001641Y005166D01*
X002506Y005546D01*
X002933Y004572D01*
G37*
G36*
X004339Y005189D02*
X003474Y004809D01*
X003047Y005783D01*
X003912Y006163D01*
X004339Y005189D01*
G37*
D32*
X010804Y002965D03*
X011819Y004882D03*
D33*
X011150Y004882D03*
X010134Y002965D03*
M02*
