G75*
%MOIN*%
%OFA0B0*%
%FSLAX24Y24*%
%IPPOS*%
%LPD*%
%AMOC8*
5,1,8,0,0,1.08239X$1,22.5*
%
%ADD10C,0.0000*%
%ADD11C,0.0020*%
%ADD12C,0.0160*%
%ADD13C,0.0050*%
%ADD14C,0.0060*%
%ADD15C,0.0080*%
D10*
X000475Y000600D02*
X000475Y005470D01*
X005342Y005470D01*
X005342Y000600D01*
X000475Y000600D01*
D11*
X003160Y001465D02*
X003300Y001465D01*
X003195Y001570D01*
X003195Y001360D01*
X003371Y001360D02*
X003406Y001360D01*
X003406Y001395D01*
X003371Y001395D01*
X003371Y001360D01*
X003478Y001360D02*
X003618Y001360D01*
X003478Y001500D01*
X003478Y001535D01*
X003513Y001570D01*
X003583Y001570D01*
X003618Y001535D01*
X003901Y001570D02*
X003901Y001430D01*
X003971Y001360D01*
X004041Y001430D01*
X004041Y001570D01*
X004113Y001570D02*
X004253Y001570D01*
X004253Y001360D01*
X004113Y001360D01*
X004183Y001465D02*
X004253Y001465D01*
X004325Y001465D02*
X004325Y001535D01*
X004360Y001570D01*
X004465Y001570D01*
X004465Y001360D01*
X004465Y001430D02*
X004360Y001430D01*
X004325Y001465D01*
X004395Y001430D02*
X004325Y001360D01*
X004358Y001849D02*
X004478Y001849D01*
X004478Y002029D01*
X004358Y002029D01*
X004294Y002029D02*
X004174Y002029D01*
X004234Y002029D02*
X004234Y001849D01*
X004418Y001939D02*
X004478Y001939D01*
X004542Y002029D02*
X004663Y002029D01*
X004663Y001849D01*
X004727Y001879D02*
X004757Y001849D01*
X004817Y001849D01*
X004847Y001879D01*
X004911Y001879D02*
X004911Y001999D01*
X004941Y002029D01*
X005001Y002029D01*
X005031Y001999D01*
X005031Y001879D01*
X005001Y001849D01*
X004941Y001849D01*
X004911Y001879D01*
X004847Y001969D02*
X004817Y001939D01*
X004757Y001939D01*
X004727Y001909D01*
X004727Y001879D01*
X004663Y001939D02*
X004602Y001939D01*
X004727Y001999D02*
X004757Y002029D01*
X004817Y002029D01*
X004847Y001999D01*
X004847Y001969D01*
X004847Y002149D02*
X004757Y002149D01*
X004727Y002179D01*
X004757Y002209D01*
X004817Y002209D01*
X004847Y002239D01*
X004817Y002269D01*
X004727Y002269D01*
X004663Y002269D02*
X004633Y002269D01*
X004633Y002149D01*
X004663Y002149D02*
X004602Y002149D01*
X004540Y002179D02*
X004510Y002149D01*
X004420Y002149D01*
X004420Y002269D02*
X004510Y002269D01*
X004540Y002239D01*
X004540Y002179D01*
X004633Y002329D02*
X004633Y002359D01*
X004663Y002449D02*
X004573Y002449D01*
X004573Y002629D01*
X004573Y002569D02*
X004663Y002569D01*
X004693Y002539D01*
X004693Y002479D01*
X004663Y002449D01*
X004757Y002569D02*
X004787Y002569D01*
X004847Y002509D01*
X004847Y002449D02*
X004847Y002569D01*
X004911Y002539D02*
X004911Y002449D01*
X005001Y002449D01*
X005031Y002479D01*
X005001Y002509D01*
X004911Y002509D01*
X004911Y002539D02*
X004941Y002569D01*
X005001Y002569D01*
X005095Y002599D02*
X005215Y002479D01*
X005215Y002449D01*
X005095Y002449D01*
X005125Y002329D02*
X005095Y002299D01*
X005095Y002269D01*
X005125Y002239D01*
X005215Y002239D01*
X005215Y002329D02*
X005125Y002329D01*
X005125Y002239D02*
X005095Y002209D01*
X005095Y002179D01*
X005125Y002149D01*
X005215Y002149D01*
X005215Y002329D01*
X005031Y002179D02*
X005001Y002209D01*
X004911Y002209D01*
X004911Y002239D02*
X004911Y002149D01*
X005001Y002149D01*
X005031Y002179D01*
X005001Y002269D02*
X004941Y002269D01*
X004911Y002239D01*
X005095Y002029D02*
X005095Y001849D01*
X005215Y001849D02*
X005215Y002029D01*
X005155Y001969D01*
X005095Y002029D01*
X005095Y002599D02*
X005095Y002629D01*
X005215Y002629D01*
X005090Y003033D02*
X005090Y003219D01*
X004997Y003309D02*
X005090Y003402D01*
X004810Y003402D01*
X004810Y003309D02*
X004810Y003496D01*
X004950Y003126D02*
X004950Y003033D01*
X004810Y003033D02*
X005090Y003033D01*
X004509Y002569D02*
X004479Y002569D01*
X004479Y002449D01*
X004509Y002449D02*
X004449Y002449D01*
X004386Y002479D02*
X004386Y002539D01*
X004356Y002569D01*
X004266Y002569D01*
X004202Y002539D02*
X004172Y002569D01*
X004112Y002569D01*
X004082Y002539D01*
X004082Y002449D01*
X004018Y002479D02*
X003988Y002509D01*
X003898Y002509D01*
X003898Y002539D02*
X003898Y002449D01*
X003988Y002449D01*
X004018Y002479D01*
X003957Y002359D02*
X003957Y002329D01*
X003957Y002269D02*
X003957Y002149D01*
X003987Y002149D02*
X003927Y002149D01*
X003865Y002179D02*
X003834Y002149D01*
X003744Y002149D01*
X003680Y002149D02*
X003680Y002269D01*
X003680Y002209D02*
X003620Y002269D01*
X003590Y002269D01*
X003527Y002239D02*
X003527Y002179D01*
X003497Y002149D01*
X003437Y002149D01*
X003407Y002179D01*
X003407Y002239D01*
X003437Y002269D01*
X003497Y002269D01*
X003527Y002239D01*
X003744Y002269D02*
X003834Y002269D01*
X003865Y002239D01*
X003865Y002179D01*
X003957Y002269D02*
X003987Y002269D01*
X004051Y002329D02*
X004051Y002149D01*
X004171Y002149D02*
X004171Y002329D01*
X004111Y002269D01*
X004051Y002329D01*
X004202Y002449D02*
X004202Y002629D01*
X004266Y002449D02*
X004356Y002449D01*
X004386Y002479D01*
X004479Y002629D02*
X004479Y002659D01*
X003988Y002569D02*
X003928Y002569D01*
X003898Y002539D01*
X003834Y002569D02*
X003834Y002449D01*
X003834Y002509D02*
X003774Y002569D01*
X003744Y002569D01*
D12*
X002475Y001350D02*
X002475Y000850D01*
D13*
X002800Y000800D02*
X002800Y001400D01*
X001400Y001400D01*
X001400Y000800D01*
X002800Y000800D01*
D14*
X002010Y002300D02*
X002010Y003900D01*
X002510Y002830D02*
X002510Y002370D01*
X003190Y002370D02*
X003190Y002830D01*
X000690Y002300D02*
X000690Y003900D01*
D15*
X004050Y003475D02*
X004050Y002975D01*
X004650Y002975D02*
X004650Y003475D01*
M02*
