G75*
%MOIN*%
%OFA0B0*%
%FSLAX24Y24*%
%IPPOS*%
%LPD*%
%AMOC8*
5,1,8,0,0,1.08239X$1,22.5*
%
%ADD10C,0.0000*%
%ADD11R,0.0236X0.0551*%
%ADD12R,0.1654X0.0433*%
%ADD13R,0.1299X0.1063*%
%ADD14R,0.1299X0.0591*%
%ADD15C,0.0340*%
%ADD16C,0.0160*%
%ADD17C,0.0500*%
%ADD18C,0.0600*%
D10*
X000475Y000600D02*
X000475Y005470D01*
X005342Y005470D01*
X005342Y000600D01*
X000475Y000600D01*
D11*
X003350Y002566D03*
X003850Y002566D03*
X004350Y002566D03*
X004850Y002566D03*
D12*
X004100Y004758D03*
D13*
X004100Y003735D03*
D14*
X001850Y003551D03*
X001850Y001149D03*
D15*
X004975Y001225D03*
D16*
X005100Y001350D01*
X005100Y002350D01*
X004884Y002566D01*
X004850Y002566D01*
D17*
X004350Y002147D02*
X004350Y002147D01*
X004350Y001940D01*
X004475Y001940D01*
X004475Y001527D01*
X004398Y001340D01*
X004398Y001110D01*
X004443Y001000D01*
X002850Y001000D01*
X002850Y001149D01*
X001850Y001149D01*
X001850Y001149D01*
X002850Y001149D01*
X002850Y001479D01*
X002836Y001547D01*
X002810Y001610D01*
X002771Y001668D01*
X002723Y001716D01*
X002665Y001755D01*
X002602Y001781D01*
X002534Y001794D01*
X001850Y001794D01*
X001166Y001794D01*
X001098Y001781D01*
X001035Y001755D01*
X000977Y001716D01*
X000929Y001668D01*
X000890Y001610D01*
X000875Y001574D01*
X000875Y002850D01*
X001115Y002850D01*
X001119Y002848D01*
X002581Y002848D01*
X002585Y002850D01*
X002882Y002850D01*
X002882Y002566D01*
X003350Y002566D01*
X003350Y002566D01*
X003850Y002566D01*
X004324Y002566D01*
X004324Y002566D01*
X003882Y002566D01*
X003850Y002566D01*
X003850Y002566D01*
X003850Y002566D01*
X003382Y002566D01*
X003350Y002566D01*
X003350Y002566D01*
X002882Y002566D01*
X002882Y002255D01*
X002895Y002188D01*
X002922Y002124D01*
X002960Y002067D01*
X003009Y002018D01*
X003066Y001980D01*
X003130Y001953D01*
X003197Y001940D01*
X003350Y001940D01*
X003503Y001940D01*
X003570Y001953D01*
X003600Y001966D01*
X003630Y001953D01*
X003697Y001940D01*
X003850Y001940D01*
X004003Y001940D01*
X004070Y001953D01*
X004100Y001966D01*
X004130Y001953D01*
X004197Y001940D01*
X004350Y001940D01*
X004350Y002147D01*
X004350Y002096D02*
X004350Y002096D01*
X004475Y001597D02*
X002815Y001597D01*
X002850Y001099D02*
X004402Y001099D01*
X003850Y001940D02*
X003850Y002566D01*
X003850Y002566D01*
X003850Y001940D01*
X003850Y002096D02*
X003850Y002096D01*
X003350Y002096D02*
X003350Y002096D01*
X003350Y001940D02*
X003350Y002566D01*
X003350Y002566D01*
X003350Y001940D01*
X002941Y002096D02*
X000875Y002096D01*
X000875Y002594D02*
X002882Y002594D01*
X002850Y003475D02*
X002850Y003551D01*
X002850Y003881D01*
X002836Y003948D01*
X002810Y004012D01*
X002771Y004069D01*
X002723Y004118D01*
X002665Y004156D01*
X002602Y004183D01*
X002534Y004196D01*
X001850Y004196D01*
X001166Y004196D01*
X001098Y004183D01*
X001035Y004156D01*
X000977Y004118D01*
X000929Y004069D01*
X000890Y004012D01*
X000875Y003975D01*
X000875Y005070D01*
X002935Y005070D01*
X002923Y005009D01*
X002923Y004758D01*
X002923Y004507D01*
X002937Y004440D01*
X002963Y004376D01*
X003001Y004319D01*
X003050Y004270D01*
X003100Y004236D01*
X003100Y003751D01*
X004084Y003751D01*
X004084Y004192D01*
X004100Y004192D01*
X004100Y004758D01*
X004100Y004758D01*
X004100Y004192D01*
X004116Y004192D01*
X004116Y003751D01*
X004084Y003751D01*
X004084Y003719D01*
X003100Y003719D01*
X003100Y003475D01*
X002850Y003475D01*
X002850Y003551D02*
X001850Y003551D01*
X001850Y004196D01*
X001850Y003551D01*
X001850Y003551D01*
X002850Y003551D01*
X002850Y003591D02*
X003100Y003591D01*
X003100Y004090D02*
X002751Y004090D01*
X002923Y004588D02*
X000875Y004588D01*
X000875Y004090D02*
X000949Y004090D01*
X001850Y004090D02*
X001850Y004090D01*
X001850Y003591D02*
X001850Y003591D01*
X001850Y003551D02*
X001850Y003551D01*
X002923Y004758D02*
X004100Y004758D01*
X004100Y004758D01*
X002923Y004758D01*
X004100Y004588D02*
X004100Y004588D01*
X004084Y004090D02*
X004116Y004090D01*
X001850Y001794D02*
X001850Y001149D01*
X001850Y001794D01*
X001850Y001597D02*
X001850Y001597D01*
X001850Y001149D02*
X001850Y001149D01*
X000885Y001597D02*
X000875Y001597D01*
D18*
X001430Y002760D03*
M02*
