G75*
%MOIN*%
%OFA0B0*%
%FSLAX24Y24*%
%IPPOS*%
%LPD*%
%AMOC8*
5,1,8,0,0,1.08239X$1,22.5*
%
%ADD10C,0.0000*%
%ADD11R,0.0472X0.0276*%
%ADD12R,0.0690X0.0440*%
%ADD13R,0.1320X0.0470*%
%ADD14R,0.0709X0.0394*%
%ADD15C,0.0120*%
%ADD16C,0.0340*%
%ADD17C,0.0160*%
%ADD18C,0.0600*%
D10*
X000475Y000600D02*
X000475Y005470D01*
X005342Y005470D01*
X005342Y000600D01*
X000475Y000600D01*
D11*
X001372Y001100D03*
X002828Y001100D03*
D12*
X002850Y002020D03*
X002850Y003180D03*
D13*
X001350Y004270D03*
X001350Y001930D03*
D14*
X004350Y002674D03*
X004350Y003776D03*
D15*
X002850Y003180D02*
X002870Y003120D01*
X002850Y003180D02*
X002750Y003240D01*
X002870Y002040D02*
X002850Y002020D01*
X001430Y004200D02*
X001350Y004270D01*
D16*
X004975Y001225D03*
D17*
X004160Y002040D01*
X002870Y002040D01*
X002850Y002020D02*
X002828Y001998D01*
X002828Y001100D01*
X001372Y001100D02*
X001372Y001908D01*
X001350Y001930D01*
X001350Y002680D01*
X001430Y002760D01*
X001430Y004200D02*
X001830Y004200D01*
X002850Y003180D01*
X002870Y003120D02*
X003904Y003120D01*
X004350Y002674D01*
X004332Y003758D02*
X003816Y003758D01*
X003816Y003725D01*
X003475Y003725D01*
X003475Y005240D01*
X005112Y005240D01*
X005112Y003725D01*
X004884Y003725D01*
X004884Y003758D01*
X004368Y003758D01*
X004368Y003795D01*
X004332Y003795D01*
X004332Y004153D01*
X003972Y004153D01*
X003926Y004141D01*
X003885Y004117D01*
X003852Y004084D01*
X003828Y004043D01*
X003816Y003997D01*
X003816Y003795D01*
X004332Y003795D01*
X004332Y003758D01*
X004332Y003770D02*
X003475Y003770D01*
X003475Y003929D02*
X003816Y003929D01*
X003855Y004087D02*
X003475Y004087D01*
X003475Y004246D02*
X005112Y004246D01*
X005112Y004404D02*
X003475Y004404D01*
X003475Y004563D02*
X005112Y004563D01*
X005112Y004721D02*
X003475Y004721D01*
X003475Y004880D02*
X005112Y004880D01*
X005112Y005038D02*
X003475Y005038D01*
X003475Y005197D02*
X005112Y005197D01*
X004774Y004141D02*
X004728Y004153D01*
X004368Y004153D01*
X004368Y003795D01*
X004884Y003795D01*
X004884Y003997D01*
X004872Y004043D01*
X004848Y004084D01*
X004815Y004117D01*
X004774Y004141D01*
X004845Y004087D02*
X005112Y004087D01*
X005112Y003929D02*
X004884Y003929D01*
X005112Y003770D02*
X004368Y003770D01*
X004368Y003929D02*
X004332Y003929D01*
X004332Y004087D02*
X004368Y004087D01*
D18*
X001430Y002760D03*
M02*
